<svg xmlns="http://www.w3.org/2000/svg" viewBox="0 0 679.18 600"><title>Layer 2</title><g id="Layer_2" data-name="Layer 2"><g id="Layer_1-2" data-name="Layer 1"><g id="Layer_2-2" data-name="Layer 2"><g id="text"><path d="M649.18,30V570H30V30H649.18m30-30H0V600H679.18Z"/><path d="M226.77,224.12c-7.51-7-18.85-10.7-34.77-10.7a160.15,160.15,0,0,0-23.56,1.78v84.45a180.25,180.25,0,0,0,20.12,1c16.69,0,29.93-4.33,38-12.36s12.35-19.36,12.35-33.37S234.42,231.12,226.77,224.12Zm-36,67.63a70,70,0,0,1-11.21-.64V223.36a63,63,0,0,1,13-1.15c23.44,0,34.9,12.86,34.77,33.11-.05,23.18-12.91,36.43-36.6,36.43Z"/><rect x="266" y="214.06" width="11.08" height="85.84"/><polygon points="357.45 290.6 320.26 290.6 320.26 259.65 353.63 259.65 353.63 250.49 320.26 250.49 320.26 223.36 355.54 223.36 355.54 214.06 309.18 214.06 309.18 299.9 357.45 299.9 357.45 290.6"/><polygon points="376.81 223.48 402.93 223.48 402.93 299.9 414.13 299.9 414.13 223.48 440.37 223.48 440.37 214.06 376.81 214.06 376.81 223.48"/><path d="M497.43,272.9l9.17,27h11.85l-29.3-85.84H475.78L446.61,299.9h11.47l8.91-27Zm-19.74-33.5c1.66-5.22,3.06-10.44,4.33-15.53h.26c1.27,5,2.54,10.06,4.46,15.66l8.4,24.71H469.29Z"/><polygon points="177.99 452.75 189.07 452.75 189.07 413.9 221.55 413.9 221.55 404.73 189.07 404.73 189.07 376.2 224.22 376.2 224.22 366.9 177.99 366.9 177.99 452.75"/><path d="M265.5,366.9l-29.17,85.85h11.46l8.92-27h30.44l9.17,27h11.84L278.87,366.9ZM259,417.09l8.41-24.84c1.65-5.22,3-10.44,4.33-15.54H272c1.28,5,2.55,10.06,4.46,15.67l8.41,24.71Z"/><path d="M371.72,374.8A40.37,40.37,0,0,1,389,378.37l2.68-9.05c-2.93-1.53-9.68-3.82-20.38-3.82-26.62,0-44.83,18.22-44.83,45.09,0,28.15,18.21,43.43,42.41,43.43,10.44,0,18.6-2,22.67-4.07l-2.29-8.79c-4.46,2.16-11.34,3.56-18.09,3.56-20.89,0-33-13.5-33-34.51C338.23,387.66,351.6,374.8,371.72,374.8Z"/><rect x="418.21" y="366.9" width="11.08" height="85.84"/><polygon points="472.47 366.9 461.39 366.9 461.39 452.75 509.15 452.75 509.15 443.45 472.47 443.45 472.47 366.9"/></g></g></g></g></svg>