<?xml version="1.0" encoding="utf-8"?>
<!-- Generator: Adobe Illustrator 22.0.1, SVG Export Plug-In . SVG Version: 6.00 Build 0)  -->
<svg version="1.1" id="Layer_1" xmlns="http://www.w3.org/2000/svg" xmlns:xlink="http://www.w3.org/1999/xlink" x="0px" y="0px"
	 viewBox="0 0 852 501.1" style="enable-background:new 0 0 852 501.1;" xml:space="preserve">
<style type="text/css">
	.st0{clip-path:url(#SVGID_2_);}
	.st1{fill:#FFFFFF;}
	.st2{font-family:'ArialMT';}
	.st3{font-size:65.67px;}
	.st4{letter-spacing:6;}
	.st5{letter-spacing:7;}
	.st6{letter-spacing:1;}
	.st7{letter-spacing:5;}
	.st8{fill:url(#SVGID_3_);}
	.st9{fill:#202126;}
	.st10{fill:url(#SVGID_4_);}
	.st11{fill:url(#SVGID_5_);}
	.st12{fill:url(#SVGID_6_);}
	.st13{fill:url(#SVGID_7_);}
	.st14{fill:url(#SVGID_8_);}
	.st15{fill:url(#SVGID_9_);}
	.st16{fill:url(#SVGID_10_);}
	.st17{fill:url(#SVGID_11_);}
	.st18{fill:url(#SVGID_12_);}
	.st19{fill:url(#SVGID_13_);}
	.st20{fill:url(#SVGID_14_);}
	.st21{fill:url(#SVGID_15_);}
	.st22{fill:url(#SVGID_16_);}
	.st23{fill:url(#SVGID_17_);}
	.st24{fill:url(#SVGID_18_);}
	.st25{fill:url(#SVGID_19_);}
	.st26{fill:url(#SVGID_20_);}
	.st27{fill:url(#SVGID_21_);}
	.st28{fill:url(#SVGID_22_);}
	.st29{fill:url(#SVGID_23_);}
	.st30{clip-path:url(#SVGID_25_);}
	.st31{font-size:70.33px;}
	.st32{letter-spacing:8;}
</style>
<title>Asset 6</title>
<g>
	<g id="Layer_2_1_">
		<g id="Gold_Laptop">
			<g id="Shadow">
				
					<image style="overflow:visible;enable-background:new    ;" width="852" height="83" xlink:href="308697CACA8CCFFF.png"  transform="matrix(1 0 0 1 0 418.08)">
				</image>
			</g>
			<g id="Artwork_1">
				<g>
					<defs>
						<rect id="SVGID_1_" x="251" y="66.1" width="350.2" height="309.3"/>
					</defs>
					<clipPath id="SVGID_2_">
						<use xlink:href="#SVGID_1_"  style="overflow:visible;"/>
					</clipPath>
					<g class="st0">
						<path class="st1" d="M266.5,81.6h319.2V360H266.5V81.6z M251,375.4h350.2V66.1H251V375.4z"/>
						<text transform="matrix(1 0 0 1 332.86 220.71)" class="st1 st2 st3 st4">D</text>
						<text transform="matrix(1 0 0 1 383.16 220.71)" class="st1 st2 st3 st4">I</text>
						<text transform="matrix(1 0 0 1 405.36 220.71)" class="st1 st2 st3 st5">E</text>
						<text transform="matrix(1 0 0 1 445.22 220.71)" class="st1 st2 st3 st6">T</text>
						<text transform="matrix(1 0 0 1 479.5 220.71)" class="st1 st2 st3">A</text>
						<text transform="matrix(1 0 0 1 337.78 299.51)" class="st1 st2 st3 st6">F</text>
						<text transform="matrix(1 0 0 1 371.21 299.51)" class="st1 st2 st3 st7">A</text>
						<text transform="matrix(1 0 0 1 416.98 299.51)" class="st1 st2 st3 st4">CI</text>
						<text transform="matrix(1 0 0 1 483.9 299.51)" class="st1 st2 st3">L</text>
					</g>
				</g>
			</g>
			
				<linearGradient id="SVGID_3_" gradientUnits="userSpaceOnUse" x1="101.91" y1="283.555" x2="750.33" y2="283.555" gradientTransform="matrix(1 0 0 -1 0 504)">
				<stop  offset="0" style="stop-color:#E6D19E"/>
				<stop  offset="1" style="stop-color:#BDA771"/>
			</linearGradient>
			<path class="st8" d="M104.5,430.7V24c0-11.8,9.6-21.4,21.4-21.4h600.4c11.8,0,21.4,9.6,21.4,21.4v406.7c0,3.6-0.9,7.1-2.6,10.2
				h2.9c1.5-3.2,2.3-6.7,2.3-10.2V24c0-13.2-10.8-24-24-24H125.9c-13.2,0-24,10.8-24,24v406.7c0,3.5,0.8,7,2.3,10.2h2.9
				C105.4,437.8,104.5,434.3,104.5,430.7z"/>
			<path class="st9" d="M426.1,440.9h319c1.7-3.1,2.6-6.6,2.6-10.2v-7.9H104.5v7.9c0,3.6,0.9,7.1,2.6,10.2H426.1z"/>
			<path d="M747.8,24c0-11.8-9.6-21.4-21.4-21.4H125.9c-11.8,0-21.4,9.6-21.4,21.4v398.8h643.3V24z"/>
			
				<linearGradient id="SVGID_4_" gradientUnits="userSpaceOnUse" x1="29.59" y1="61.06" x2="822.67" y2="61.06" gradientTransform="matrix(1 0 0 -1 0 504)">
				<stop  offset="0" style="stop-color:#876308"/>
				<stop  offset="2.000000e-02" style="stop-color:#F7F2E6"/>
				<stop  offset="8.000000e-02" style="stop-color:#CFBF9A"/>
				<stop  offset="0.5" style="stop-color:#F7E5B9"/>
				<stop  offset="0.91" style="stop-color:#CFC09B"/>
				<stop  offset="0.97" style="stop-color:#F7F3E8"/>
				<stop  offset="0.98" style="stop-color:#F5F0E3"/>
				<stop  offset="0.98" style="stop-color:#EEE7D6"/>
				<stop  offset="0.98" style="stop-color:#E2D8C0"/>
				<stop  offset="0.99" style="stop-color:#D2C3A0"/>
				<stop  offset="0.99" style="stop-color:#BDA878"/>
				<stop  offset="1" style="stop-color:#A48847"/>
				<stop  offset="1" style="stop-color:#87610E"/>
				<stop  offset="1" style="stop-color:#805901"/>
			</linearGradient>
			<path class="st10" d="M104.2,440.9H29.6v4.1h77.1C105.7,443.7,104.9,442.3,104.2,440.9z"/>
			
				<linearGradient id="SVGID_5_" gradientUnits="userSpaceOnUse" x1="29.59" y1="61.06" x2="822.67" y2="61.06" gradientTransform="matrix(1 0 0 -1 0 504)">
				<stop  offset="0" style="stop-color:#876308"/>
				<stop  offset="2.000000e-02" style="stop-color:#F7F2E6"/>
				<stop  offset="8.000000e-02" style="stop-color:#CFBF9A"/>
				<stop  offset="0.5" style="stop-color:#F7E5B9"/>
				<stop  offset="0.91" style="stop-color:#CFC09B"/>
				<stop  offset="0.97" style="stop-color:#F7F3E8"/>
				<stop  offset="0.98" style="stop-color:#F5F0E3"/>
				<stop  offset="0.98" style="stop-color:#EEE7D6"/>
				<stop  offset="0.98" style="stop-color:#E2D8C0"/>
				<stop  offset="0.99" style="stop-color:#D2C3A0"/>
				<stop  offset="0.99" style="stop-color:#BDA878"/>
				<stop  offset="1" style="stop-color:#A48847"/>
				<stop  offset="1" style="stop-color:#87610E"/>
				<stop  offset="1" style="stop-color:#805901"/>
			</linearGradient>
			<path class="st11" d="M748,440.9c-0.7,1.5-1.5,2.8-2.5,4.1h77.1v-4.1L748,440.9z"/>
			
				<linearGradient id="SVGID_6_" gradientUnits="userSpaceOnUse" x1="101.93" y1="61.035" x2="750.33" y2="61.035" gradientTransform="matrix(1 0 0 -1 0 504)">
				<stop  offset="0" style="stop-color:#E6D19E"/>
				<stop  offset="1" style="stop-color:#BDA771"/>
			</linearGradient>
			<path class="st12" d="M110,445c-1.1-1.2-2.1-2.6-2.9-4.1h-2.9c0.7,1.4,1.5,2.8,2.4,4.1H110z"/>
			
				<linearGradient id="SVGID_7_" gradientUnits="userSpaceOnUse" x1="29.59" y1="61.035" x2="822.67" y2="61.035" gradientTransform="matrix(1 0 0 -1 0 504)">
				<stop  offset="0" style="stop-color:#876308"/>
				<stop  offset="2.000000e-02" style="stop-color:#F7F2E6"/>
				<stop  offset="8.000000e-02" style="stop-color:#CFBF9A"/>
				<stop  offset="0.5" style="stop-color:#F7E5B9"/>
				<stop  offset="0.91" style="stop-color:#CFC09B"/>
				<stop  offset="0.97" style="stop-color:#F7F3E8"/>
				<stop  offset="0.98" style="stop-color:#F5F0E3"/>
				<stop  offset="0.98" style="stop-color:#EEE7D6"/>
				<stop  offset="0.98" style="stop-color:#E2D8C0"/>
				<stop  offset="0.99" style="stop-color:#D2C3A0"/>
				<stop  offset="0.99" style="stop-color:#BDA878"/>
				<stop  offset="1" style="stop-color:#A48847"/>
				<stop  offset="1" style="stop-color:#87610E"/>
				<stop  offset="1" style="stop-color:#805901"/>
			</linearGradient>
			<path class="st13" d="M110,445c-1.1-1.2-2.1-2.6-2.9-4.1h-2.9c0.7,1.4,1.5,2.8,2.4,4.1H110z"/>
			
				<linearGradient id="SVGID_8_" gradientUnits="userSpaceOnUse" x1="101.93" y1="61.035" x2="750.33" y2="61.035" gradientTransform="matrix(1 0 0 -1 0 504)">
				<stop  offset="0" style="stop-color:#E6D19E"/>
				<stop  offset="1" style="stop-color:#BDA771"/>
			</linearGradient>
			<path class="st14" d="M742.3,445h3.3c0.9-1.3,1.8-2.6,2.5-4.1h-2.9C744.4,442.4,743.4,443.8,742.3,445z"/>
			
				<linearGradient id="SVGID_9_" gradientUnits="userSpaceOnUse" x1="29.59" y1="61.035" x2="822.67" y2="61.035" gradientTransform="matrix(1 0 0 -1 0 504)">
				<stop  offset="0" style="stop-color:#876308"/>
				<stop  offset="2.000000e-02" style="stop-color:#F7F2E6"/>
				<stop  offset="8.000000e-02" style="stop-color:#CFBF9A"/>
				<stop  offset="0.5" style="stop-color:#F7E5B9"/>
				<stop  offset="0.91" style="stop-color:#CFC09B"/>
				<stop  offset="0.97" style="stop-color:#F7F3E8"/>
				<stop  offset="0.98" style="stop-color:#F5F0E3"/>
				<stop  offset="0.98" style="stop-color:#EEE7D6"/>
				<stop  offset="0.98" style="stop-color:#E2D8C0"/>
				<stop  offset="0.99" style="stop-color:#D2C3A0"/>
				<stop  offset="0.99" style="stop-color:#BDA878"/>
				<stop  offset="1" style="stop-color:#A48847"/>
				<stop  offset="1" style="stop-color:#87610E"/>
				<stop  offset="1" style="stop-color:#805901"/>
			</linearGradient>
			<path class="st15" d="M742.3,445h3.3c0.9-1.3,1.8-2.6,2.5-4.1h-2.9C744.4,442.4,743.4,443.8,742.3,445z"/>
			<path class="st9" d="M501.8,445h240.5c1.1-1.2,2.1-2.6,2.9-4.1H501.8V445z"/>
			
				<linearGradient id="SVGID_10_" gradientUnits="userSpaceOnUse" x1="29.59" y1="61.035" x2="822.67" y2="61.035" gradientTransform="matrix(1 0 0 -1 0 504)">
				<stop  offset="0" style="stop-color:#876308"/>
				<stop  offset="2.000000e-02" style="stop-color:#F7F2E6"/>
				<stop  offset="8.000000e-02" style="stop-color:#CFBF9A"/>
				<stop  offset="0.5" style="stop-color:#F7E5B9"/>
				<stop  offset="0.91" style="stop-color:#CFC09B"/>
				<stop  offset="0.97" style="stop-color:#F7F3E8"/>
				<stop  offset="0.98" style="stop-color:#F5F0E3"/>
				<stop  offset="0.98" style="stop-color:#EEE7D6"/>
				<stop  offset="0.98" style="stop-color:#E2D8C0"/>
				<stop  offset="0.99" style="stop-color:#D2C3A0"/>
				<stop  offset="0.99" style="stop-color:#BDA878"/>
				<stop  offset="1" style="stop-color:#A48847"/>
				<stop  offset="1" style="stop-color:#87610E"/>
				<stop  offset="1" style="stop-color:#805901"/>
			</linearGradient>
			<path class="st16" d="M501.8,445h240.5c1.1-1.2,2.1-2.6,2.9-4.1H501.8V445z"/>
			<path class="st9" d="M350.4,440.9H107.1c0.8,1.5,1.8,2.9,2.9,4.1h240.4V440.9z"/>
			
				<linearGradient id="SVGID_11_" gradientUnits="userSpaceOnUse" x1="29.59" y1="61.06" x2="822.67" y2="61.06" gradientTransform="matrix(1 0 0 -1 0 504)">
				<stop  offset="0" style="stop-color:#876308"/>
				<stop  offset="2.000000e-02" style="stop-color:#F7F2E6"/>
				<stop  offset="8.000000e-02" style="stop-color:#CFBF9A"/>
				<stop  offset="0.5" style="stop-color:#F7E5B9"/>
				<stop  offset="0.91" style="stop-color:#CFC09B"/>
				<stop  offset="0.97" style="stop-color:#F7F3E8"/>
				<stop  offset="0.98" style="stop-color:#F5F0E3"/>
				<stop  offset="0.98" style="stop-color:#EEE7D6"/>
				<stop  offset="0.98" style="stop-color:#E2D8C0"/>
				<stop  offset="0.99" style="stop-color:#D2C3A0"/>
				<stop  offset="0.99" style="stop-color:#BDA878"/>
				<stop  offset="1" style="stop-color:#A48847"/>
				<stop  offset="1" style="stop-color:#87610E"/>
				<stop  offset="1" style="stop-color:#805901"/>
			</linearGradient>
			<path class="st17" d="M350.4,440.9H107.1c0.8,1.5,1.8,2.9,2.9,4.1h240.4V440.9z"/>
			<polygon class="st9" points="426.1,440.9 350.4,440.9 350.4,445 501.8,445 501.8,440.9 			"/>
			
				<linearGradient id="SVGID_12_" gradientUnits="userSpaceOnUse" x1="29.59" y1="61.085" x2="822.67" y2="61.085" gradientTransform="matrix(1 0 0 -1 0 504)">
				<stop  offset="0" style="stop-color:#876308"/>
				<stop  offset="2.000000e-02" style="stop-color:#F7F2E6"/>
				<stop  offset="8.000000e-02" style="stop-color:#CFBF9A"/>
				<stop  offset="0.5" style="stop-color:#F7E5B9"/>
				<stop  offset="0.91" style="stop-color:#CFC09B"/>
				<stop  offset="0.97" style="stop-color:#F7F3E8"/>
				<stop  offset="0.98" style="stop-color:#F5F0E3"/>
				<stop  offset="0.98" style="stop-color:#EEE7D6"/>
				<stop  offset="0.98" style="stop-color:#E2D8C0"/>
				<stop  offset="0.99" style="stop-color:#D2C3A0"/>
				<stop  offset="0.99" style="stop-color:#BDA878"/>
				<stop  offset="1" style="stop-color:#A48847"/>
				<stop  offset="1" style="stop-color:#87610E"/>
				<stop  offset="1" style="stop-color:#805901"/>
			</linearGradient>
			<polygon class="st18" points="426.1,440.9 350.4,440.9 350.4,445 501.8,445 501.8,440.9 			"/>
			
				<linearGradient id="SVGID_13_" gradientUnits="userSpaceOnUse" x1="350.44" y1="61.085" x2="501.81" y2="61.085" gradientTransform="matrix(1 0 0 -1 0 504)">
				<stop  offset="0" style="stop-color:#73633C"/>
				<stop  offset="1.000000e-02" style="stop-color:#7E6E48"/>
				<stop  offset="5.000000e-02" style="stop-color:#A4946E"/>
				<stop  offset="8.000000e-02" style="stop-color:#C0B089"/>
				<stop  offset="0.11" style="stop-color:#D0C09A"/>
				<stop  offset="0.14" style="stop-color:#D6C6A0"/>
				<stop  offset="0.87" style="stop-color:#D1C19D"/>
				<stop  offset="0.9" style="stop-color:#CABA96"/>
				<stop  offset="0.93" style="stop-color:#B6A683"/>
				<stop  offset="0.97" style="stop-color:#958665"/>
				<stop  offset="1" style="stop-color:#736545"/>
			</linearGradient>
			<polygon class="st19" points="426.1,440.9 350.4,440.9 350.4,445 501.8,445 501.8,440.9 			"/>
			
				<linearGradient id="SVGID_14_" gradientUnits="userSpaceOnUse" x1="426.13" y1="59.14" x2="426.13" y2="46.5" gradientTransform="matrix(1 0 0 -1 0 504)">
				<stop  offset="0" style="stop-color:#CFBF9A"/>
				<stop  offset="0.87" style="stop-color:#615443"/>
			</linearGradient>
			<path class="st20" d="M726.3,454.7H125.9c-7.6,0-14.7-3.6-19.3-9.7H29.6c0,0,24.6,12,108,12h577.1c83.3,0,108-12,108-12h-77.1
				C741.1,451.1,733.9,454.7,726.3,454.7z"/>
			
				<linearGradient id="SVGID_15_" gradientUnits="userSpaceOnUse" x1="25.72" y1="53" x2="823.49" y2="53" gradientTransform="matrix(1 0 0 -1 0 504)">
				<stop  offset="0" style="stop-color:#F7E5B9"/>
				<stop  offset="1.000000e-02" style="stop-color:#F8E8C0"/>
				<stop  offset="6.000000e-02" style="stop-color:#F9EFD6"/>
				<stop  offset="0.11" style="stop-color:#FAF5E7"/>
				<stop  offset="0.18" style="stop-color:#FBF9F3"/>
				<stop  offset="0.27" style="stop-color:#FCFBFA"/>
				<stop  offset="0.51" style="stop-color:#FCFCFC"/>
				<stop  offset="0.73" style="stop-color:#FCFBFA"/>
				<stop  offset="0.82" style="stop-color:#FBF9F3"/>
				<stop  offset="0.89" style="stop-color:#FAF5E6"/>
				<stop  offset="0.94" style="stop-color:#F9EED5"/>
				<stop  offset="0.99" style="stop-color:#F7E7BE"/>
				<stop  offset="1" style="stop-color:#F7E5B9"/>
			</linearGradient>
			<path class="st21" d="M726.3,454.7H125.9c-7.6,0-14.7-3.6-19.3-9.7H29.6c0,0,24.6,12,108,12h577.1c83.3,0,108-12,108-12h-77.1
				C741.1,451.1,733.9,454.7,726.3,454.7z"/>
			
				<linearGradient id="SVGID_16_" gradientUnits="userSpaceOnUse" x1="101.93" y1="54.135" x2="750.33" y2="54.135" gradientTransform="matrix(1 0 0 -1 0 504)">
				<stop  offset="0" style="stop-color:#E6D19E"/>
				<stop  offset="1" style="stop-color:#BDA771"/>
			</linearGradient>
			<path class="st22" d="M726.3,452.1H125.9c-6.1,0-11.9-2.6-15.9-7.1h-3.3c4.5,6.1,11.7,9.7,19.3,9.7h600.4
				c7.6,0,14.7-3.6,19.3-9.7h-3.3C738.2,449.5,732.4,452.1,726.3,452.1z"/>
			
				<linearGradient id="SVGID_17_" gradientUnits="userSpaceOnUse" x1="426.14" y1="59.14" x2="426.14" y2="46.5" gradientTransform="matrix(1 0 0 -1 0 504)">
				<stop  offset="0" style="stop-color:#CFBF9A"/>
				<stop  offset="0.87" style="stop-color:#615443"/>
			</linearGradient>
			<path class="st23" d="M726.3,452.1H125.9c-6.1,0-11.9-2.6-15.9-7.1h-3.3c4.5,6.1,11.7,9.7,19.3,9.7h600.4
				c7.6,0,14.7-3.6,19.3-9.7h-3.3C738.2,449.5,732.4,452.1,726.3,452.1z"/>
			
				<linearGradient id="SVGID_18_" gradientUnits="userSpaceOnUse" x1="25.72" y1="54.135" x2="823.49" y2="54.135" gradientTransform="matrix(1 0 0 -1 0 504)">
				<stop  offset="0" style="stop-color:#F7E5B9"/>
				<stop  offset="1.000000e-02" style="stop-color:#F8E8C0"/>
				<stop  offset="6.000000e-02" style="stop-color:#F9EFD6"/>
				<stop  offset="0.11" style="stop-color:#FAF5E7"/>
				<stop  offset="0.18" style="stop-color:#FBF9F3"/>
				<stop  offset="0.27" style="stop-color:#FCFBFA"/>
				<stop  offset="0.51" style="stop-color:#FCFCFC"/>
				<stop  offset="0.73" style="stop-color:#FCFBFA"/>
				<stop  offset="0.82" style="stop-color:#FBF9F3"/>
				<stop  offset="0.89" style="stop-color:#FAF5E6"/>
				<stop  offset="0.94" style="stop-color:#F9EED5"/>
				<stop  offset="0.99" style="stop-color:#F7E7BE"/>
				<stop  offset="1" style="stop-color:#F7E5B9"/>
			</linearGradient>
			<path class="st24" d="M726.3,452.1H125.9c-6.1,0-11.9-2.6-15.9-7.1h-3.3c4.5,6.1,11.7,9.7,19.3,9.7h600.4
				c7.6,0,14.7-3.6,19.3-9.7h-3.3C738.2,449.5,732.4,452.1,726.3,452.1z"/>
			<path class="st9" d="M125.9,452.1h600.4c6.1,0,11.9-2.6,15.9-7.1H501.8c-5.2,1.3-15.9,1.9-30.6,1.9h-90.1
				c-14.8,0-25.4-0.6-30.6-1.9H110C114.1,449.5,119.8,452.1,125.9,452.1z"/>
			
				<linearGradient id="SVGID_19_" gradientUnits="userSpaceOnUse" x1="426.145" y1="59.14" x2="426.145" y2="46.5" gradientTransform="matrix(1 0 0 -1 0 504)">
				<stop  offset="0" style="stop-color:#CFBF9A"/>
				<stop  offset="0.87" style="stop-color:#615443"/>
			</linearGradient>
			<path class="st25" d="M125.9,452.1h600.4c6.1,0,11.9-2.6,15.9-7.1H501.8c-5.2,1.3-15.9,1.9-30.6,1.9h-90.1
				c-14.8,0-25.4-0.6-30.6-1.9H110C114.1,449.5,119.8,452.1,125.9,452.1z"/>
			
				<linearGradient id="SVGID_20_" gradientUnits="userSpaceOnUse" x1="25.72" y1="55.445" x2="823.49" y2="55.445" gradientTransform="matrix(1 0 0 -1 0 504)">
				<stop  offset="0" style="stop-color:#F7E5B9"/>
				<stop  offset="1.000000e-02" style="stop-color:#F8E8C0"/>
				<stop  offset="6.000000e-02" style="stop-color:#F9EFD6"/>
				<stop  offset="0.11" style="stop-color:#FAF5E7"/>
				<stop  offset="0.18" style="stop-color:#FBF9F3"/>
				<stop  offset="0.27" style="stop-color:#FCFBFA"/>
				<stop  offset="0.51" style="stop-color:#FCFCFC"/>
				<stop  offset="0.73" style="stop-color:#FCFBFA"/>
				<stop  offset="0.82" style="stop-color:#FBF9F3"/>
				<stop  offset="0.89" style="stop-color:#FAF5E6"/>
				<stop  offset="0.94" style="stop-color:#F9EED5"/>
				<stop  offset="0.99" style="stop-color:#F7E7BE"/>
				<stop  offset="1" style="stop-color:#F7E5B9"/>
			</linearGradient>
			<path class="st26" d="M125.9,452.1h600.4c6.1,0,11.9-2.6,15.9-7.1H501.8c-5.2,1.3-15.9,1.9-30.6,1.9h-90.1
				c-14.8,0-25.4-0.6-30.6-1.9H110C114.1,449.5,119.8,452.1,125.9,452.1z"/>
			<path class="st9" d="M381.1,446.9h90.1c14.8,0,25.4-0.6,30.6-1.9H350.4C355.7,446.2,366.3,446.9,381.1,446.9z"/>
			
				<linearGradient id="SVGID_21_" gradientUnits="userSpaceOnUse" x1="426.13" y1="59.14" x2="426.13" y2="46.5" gradientTransform="matrix(1 0 0 -1 0 504)">
				<stop  offset="0" style="stop-color:#CFBF9A"/>
				<stop  offset="0.87" style="stop-color:#615443"/>
			</linearGradient>
			<path class="st27" d="M381.1,446.9h90.1c14.8,0,25.4-0.6,30.6-1.9H350.4C355.7,446.2,366.3,446.9,381.1,446.9z"/>
			
				<linearGradient id="SVGID_22_" gradientUnits="userSpaceOnUse" x1="350.44" y1="58.09" x2="501.82" y2="58.09" gradientTransform="matrix(1 0 0 -1 0 504)">
				<stop  offset="0" style="stop-color:#73633C"/>
				<stop  offset="1.000000e-02" style="stop-color:#7E6E48"/>
				<stop  offset="5.000000e-02" style="stop-color:#A4946E"/>
				<stop  offset="8.000000e-02" style="stop-color:#C0B089"/>
				<stop  offset="0.11" style="stop-color:#D0C09A"/>
				<stop  offset="0.14" style="stop-color:#D6C6A0"/>
				<stop  offset="0.87" style="stop-color:#D1C19D"/>
				<stop  offset="0.9" style="stop-color:#CABA96"/>
				<stop  offset="0.93" style="stop-color:#B6A683"/>
				<stop  offset="0.97" style="stop-color:#958665"/>
				<stop  offset="1" style="stop-color:#736545"/>
			</linearGradient>
			<path class="st28" d="M381.1,446.9h90.1c14.8,0,25.4-0.6,30.6-1.9H350.4C355.7,446.2,366.3,446.9,381.1,446.9z"/>
			
				<linearGradient id="SVGID_23_" gradientUnits="userSpaceOnUse" x1="25.72" y1="58.09" x2="823.49" y2="58.09" gradientTransform="matrix(1 0 0 -1 0 504)">
				<stop  offset="0" style="stop-color:#F7E5B9"/>
				<stop  offset="1.000000e-02" style="stop-color:#F8E8C0"/>
				<stop  offset="6.000000e-02" style="stop-color:#F9EFD6"/>
				<stop  offset="0.11" style="stop-color:#FAF5E7"/>
				<stop  offset="0.18" style="stop-color:#FBF9F3"/>
				<stop  offset="0.27" style="stop-color:#FCFBFA"/>
				<stop  offset="0.51" style="stop-color:#FCFCFC"/>
				<stop  offset="0.73" style="stop-color:#FCFBFA"/>
				<stop  offset="0.82" style="stop-color:#FBF9F3"/>
				<stop  offset="0.89" style="stop-color:#FAF5E6"/>
				<stop  offset="0.94" style="stop-color:#F9EED5"/>
				<stop  offset="0.99" style="stop-color:#F7E7BE"/>
				<stop  offset="1" style="stop-color:#F7E5B9"/>
			</linearGradient>
			<path class="st29" d="M381.1,446.9h90.1c14.8,0,25.4-0.6,30.6-1.9H350.4C355.7,446.2,366.3,446.9,381.1,446.9z"/>
			<g id="_YOUR_SCREEN_HERE_">
				<g id="Artwork_1-2">
					<g>
						<defs>
							<rect id="SVGID_24_" x="251" y="47.1" width="375" height="331.3"/>
						</defs>
						<clipPath id="SVGID_25_">
							<use xlink:href="#SVGID_24_"  style="overflow:visible;"/>
						</clipPath>
						<g class="st30">
							<path class="st1" d="M267.6,63.6h341.9v298.2H267.6V63.6z M251,378.4h375V47.1H251V378.4z"/>
							<text transform="matrix(1 0 0 1 338.66 212.67)" class="st1 st2 st31 st5">D</text>
							<text transform="matrix(1 0 0 1 392.53 212.67)" class="st1 st2 st31 st5">I</text>
							<text transform="matrix(1 0 0 1 416.3 212.67)" class="st1 st2 st31 st32">E</text>
							<text transform="matrix(1 0 0 1 458.99 212.67)" class="st1 st2 st31 st6">T</text>
							<text transform="matrix(1 0 0 1 495.7 212.67)" class="st1 st2 st31">A</text>
							<text transform="matrix(1 0 0 1 343.93 297.06)" class="st1 st2 st31 st6">F</text>
							<text transform="matrix(1 0 0 1 379.73 297.06)" class="st1 st2 st31 st7">A</text>
							<text transform="matrix(1 0 0 1 428.74 297.06)" class="st1 st2 st31 st5">CI</text>
							<text transform="matrix(1 0 0 1 500.4099 297.06)" class="st1 st2 st31">L</text>
						</g>
					</g>
				</g>
			</g>
		</g>
	</g>
</g>
</svg>
